name analog
datacolumns 19
datarows 28
range 0.17400000000000002 0.1875
endheader
time	ground_force_vx	ground_force_vy	ground_force_vz	ground_force_px	ground_force_py	ground_force_pz	l_ground_force_vx	l_ground_force_vy	l_ground_force_vz	l_ground_force_px	l_ground_force_py	l_ground_force_pz	ground_torque_x	ground_torque_y	ground_torque_z	l_ground_torque_x	l_ground_torque_y	l_ground_torque_z
0.17400000000000002	-0.0	-0.0	-0.0	-11.240524291992188	31.24354362487793	-435.829345703125	-15.658242225646973	-46.85544204711914	-515.3477783203125	-0.0	-0.0	-0.0	-0.0	-0.0	-0.0	122611.7578125	25645.650390625	-13520.703125
0.17450000000000002	-0.0	-0.0	-0.0	-11.642601013183594	31.420352935791016	-439.1767578125	-15.300359725952148	-46.1937370300293	-513.2469482421875	-0.0	-0.0	-0.0	-0.0	-0.0	-0.0	122081.4140625	25986.35546875	-13474.5048828125
0.17500000000000002	-0.0	-0.0	-0.0	-12.362152099609377	30.881914138793945	-442.3836059570313	-15.435676574707031	-45.43938446044922	-511.8619079589844	-0.0	-0.0	-0.0	-0.0	-0.0	-0.0	121904.5078125	25802.087890625	-13415.1201171875
0.17550000000000002	-0.0	-0.0	-0.0	-13.118541717529297	31.05792617797852	-444.6580810546875	-15.617273330688477	-44.95851135253906	-510.62603759765625	-0.0	-0.0	-0.0	-0.0	-0.0	-0.0	122076.1484375	25617.234375	-13460.80078125
0.176	-0.0	-0.0	-0.0	-13.871698379516602	31.90761375427246	-448.3810424804688	-15.258255004882812	-44.643341064453125	-513.2529296875	-0.0	-0.0	-0.0	-0.0	-0.0	-0.0	122356.203125	25405.98046875	-13384.302734375
0.1765	-0.0	-0.0	-0.0	-14.409982681274414	32.400390625	-451.01080322265625	-14.948386192321776	-44.1172981262207	-514.1087036132812	-0.0	-0.0	-0.0	-0.0	-0.0	-0.0	122428.21875	25014.501953125	-13221.9208984375
0.177	-0.0	-0.0	-0.0	-14.765765190124512	32.531646728515625	-453.665283203125	-14.191336631774902	-43.49546051025391	-513.4251098632812	-0.0	-0.0	-0.0	-0.0	-0.0	-0.0	122327.328125	24476.875	-12969.6943359375
0.1775	-0.0	-0.0	-0.0	-14.988238334655762	32.13107681274414	-456.66510009765625	-13.793968200683594	-42.833797454833984	-511.8562622070313	-0.0	-0.0	-0.0	-0.0	-0.0	-0.0	121824.1796875	24002.833984375	-12598.2431640625
0.178	-0.0	-0.0	-0.0	-14.8507661819458	32.39850616455078	-459.1528015136719	-13.835762977600098	-43.10202026367188	-507.4898376464844	-0.0	-0.0	-0.0	-0.0	-0.0	-0.0	120845.8828125	23592.234375	-12331.365234375
0.1785	-0.0	-0.0	-0.0	-13.37937068939209	31.907215118408203	-464.7906188964844	-13.528884887695312	-42.61570358276367	-502.4214782714844	-0.0	-0.0	-0.0	-0.0	-0.0	-0.0	119630.890625	22880.462890625	-12152.0556640625
0.179	-0.0	-0.0	-0.0	-13.827629089355469	31.68349838256836	-462.320556640625	-12.596931457519531	-42.43994522094727	-498.5776672363281	-0.0	-0.0	-0.0	-0.0	-0.0	-0.0	118560.078125	22203.603515625	-11750.7900390625
0.1795	-0.0	-0.0	-0.0	-13.470190048217772	31.46124267578125	-462.31256103515625	-12.065509796142578	-41.15707015991211	-493.8699951171875	-0.0	-0.0	-0.0	-0.0	-0.0	-0.0	117363.609375	21708.873046875	-11468.2275390625
0.18	-0.0	-0.0	-0.0	-13.426441192626951	32.131771087646484	-463.19036865234375	-10.90989589691162	-40.097286224365234	-489.3345031738281	-0.0	-0.0	-0.0	-0.0	-0.0	-0.0	116509.125	21016.41015625	-11052.7119140625
0.1805	-0.0	-0.0	-0.0	-12.98036766052246	31.684667587280277	-459.6608581542969	-9.891613960266112	-38.77106094360352	-486.1836853027344	-0.0	-0.0	-0.0	-0.0	-0.0	-0.0	115443.921875	20431.5078125	-10650.837890625
0.181	-0.0	-0.0	-0.0	-12.221441268920898	31.417869567871094	-461.9609680175781	-8.693011283874512	-36.91910934448242	-482.1784057617188	-0.0	-0.0	-0.0	-0.0	-0.0	-0.0	114777.875	19798.251953125	-10293.826171875
0.1815	-0.0	-0.0	-0.0	-11.24020290374756	31.19435691833496	-461.7846984863281	-8.072681427001953	-35.28310012817383	-477.4659729003906	-0.0	-0.0	-0.0	-0.0	-0.0	-0.0	113696.8515625	18986.953125	-9877.7119140625
0.182	-0.0	-0.0	-0.0	-10.660238265991213	31.195919036865234	-461.78662109375	-6.740968227386475	-33.56328582763672	-472.7492370605469	-0.0	-0.0	-0.0	-0.0	-0.0	-0.0	112572.8046875	18594.44140625	-9357.140625
0.1825	-0.0	-0.0	-0.0	-10.527040481567385	31.10651016235352	-461.0768127441406	-5.5883307456970215	-32.36967468261719	-467.1613159179688	-0.0	-0.0	-0.0	-0.0	-0.0	-0.0	111115.8125	18046.19921875	-9089.2431640625
0.183	-0.0	-0.0	-0.0	-10.615681648254396	31.81967544555664	-460.3698120117188	-4.83455228805542	-30.868244171142575	-461.4016723632813	-0.0	-0.0	-0.0	-0.0	-0.0	-0.0	109542.7265625	17474.83203125	-8687.94921875
0.1835	-0.0	-0.0	-0.0	-10.749820709228516	32.13155746459961	-457.8979797363281	-3.9026172161102295	-29.455446243286133	-453.7205810546875	-0.0	-0.0	-0.0	-0.0	-0.0	-0.0	108007.1484375	17118.42578125	-8271.52734375
0.184	-0.0	-0.0	-0.0	-10.83904266357422	32.443485260009766	-457.3681640625	-2.7932581901550293	-28.571189880371094	-449.3561706542969	-0.0	-0.0	-0.0	-0.0	-0.0	-0.0	106865.9765625	16945.80859375	-7988.61767578125
0.1845	-0.0	-0.0	-0.0	-11.374563217163086	32.71073532104492	-457.3675231933594	-1.6848081350326538	-27.99728012084961	-442.7249450683594	-0.0	-0.0	-0.0	-0.0	-0.0	-0.0	105344.5625	16685.689453125	-7646.82861328125
0.185	-0.0	-0.0	-0.0	-11.46371078491211	32.57721710205078	-455.9561767578125	-0.4432682394981384	-26.805561065673828	-436.7864379882813	-0.0	-0.0	-0.0	-0.0	-0.0	-0.0	103789.265625	16287.3515625	-7393.421875
0.1855	-0.0	-0.0	-0.0	-10.749220848083496	32.48794174194336	-457.0148315429688	1.2420822381973269	-25.878189086914062	-430.503173828125	-0.0	-0.0	-0.0	-0.0	-0.0	-0.0	102248.265625	15797.2080078125	-7065.73095703125
0.186	-0.0	-0.0	-0.0	-11.017367362976074	32.22051239013672	-455.77923583984375	2.129070520401001	-24.995037078857425	-424.7430114746094	-0.0	-0.0	-0.0	-0.0	-0.0	-0.0	100874.9765625	15379.4970703125	-6634.7607421875
0.1865	-0.0	-0.0	-0.0	-11.108159065246582	32.177040100097656	-454.1907043457031	3.459506034851074	-24.4209098815918	-418.8075256347656	-0.0	-0.0	-0.0	-0.0	-0.0	-0.0	99419.7890625	15160.701171875	-6144.22265625
0.187	-0.0	-0.0	-0.0	-10.972127914428713	31.73004150390625	-453.1329040527344	4.124722957611084	-23.93504524230957	-414.9669494628906	-0.0	-0.0	-0.0	-0.0	-0.0	-0.0	98168.859375	15138.26953125	-6084.36181640625
0.1875	-0.0	-0.0	-0.0	-11.061182975769045	31.99735450744629	-452.7748718261719	5.278187274932861	-24.02433013916016	-411.8255615234375	-0.0	-0.0	-0.0	-0.0	-0.0	-0.0	97676.4453125	14852.46875	-5668.24951171875
